<svg xmlns="http://www.w3.org/2000/svg" height="800" width="1200" version="1.0" viewBox="-118.50135 -39.3905 1027.0117 236.343"><g font-weight="400" font-size="74.567"><path style="line-height:100%;-inkscape-font-specification:'Arial Black';text-align:start" d="M294.14 0h43.46v53.719c4.3-4.512 9.182-7.896 14.646-10.152 5.463-2.255 11.508-3.383 18.135-3.384 13.677 0 24.991 4.918 33.945 14.752 8.953 9.835 13.43 23.952 13.43 42.351 0 12.267-2.045 23.07-6.134 32.411-4.089 9.341-9.746 16.32-16.972 20.938-7.226 4.618-15.245 6.927-24.057 6.927-7.544 0-14.452-1.622-20.726-4.865-4.724-2.538-9.87-7.296-15.44-14.276v16.603H294.14zm43.144 98.555c0 9.658 1.815 16.655 5.446 20.99 3.63 4.336 8.23 6.504 13.8 6.504 5.146 0 9.464-2.132 12.953-6.397 3.49-4.265 5.235-11.439 5.235-21.52 0-8.882-1.71-15.403-5.129-19.563-3.419-4.159-7.56-6.239-12.425-6.239-5.851 0-10.627 2.168-14.329 6.504-3.7 4.335-5.551 10.91-5.551 19.721zM440.582 0h43.145v155.024h-43.145zm194.314 155.024h-40.183v-18.189c-5.993 7.473-12.038 12.796-18.136 15.968-6.098 3.172-13.588 4.759-22.47 4.759-11.844 0-21.132-3.543-27.865-10.628-6.732-7.085-10.099-17.994-10.099-32.728V42.72h43.25v61.756c0 7.05 1.305 12.055 3.913 15.016 2.608 2.96 6.274 4.441 10.998 4.441 5.146 0 9.358-1.974 12.636-5.921 3.278-3.948 4.917-11.033 4.917-21.255V42.72h43.04zm155.113-45.471H703.72c.775 6.909 2.644 12.055 5.605 15.439 4.159 4.864 9.587 7.296 16.284 7.296 4.23 0 8.249-1.057 12.055-3.172 2.327-1.34 4.83-3.701 7.508-7.085l42.405 3.912c-6.486 11.28-14.311 19.37-23.476 24.27-9.165 4.899-22.313 7.349-39.443 7.349-14.875 0-26.578-2.098-35.108-6.292-8.53-4.195-15.597-10.857-21.202-19.986-5.605-9.13-8.407-19.863-8.407-32.2 0-17.554 5.622-31.759 16.867-42.616 11.244-10.856 26.771-16.284 46.58-16.285 16.074 0 28.764 2.433 38.07 7.297 9.305 4.864 16.39 11.914 21.254 21.15 4.864 9.234 7.297 21.254 7.297 36.059zm-43.78-20.62c-.845-8.32-3.083-14.276-6.714-17.872-3.63-3.595-8.407-5.393-14.329-5.393-6.838 0-12.301 2.714-16.39 8.143-2.609 3.384-4.265 8.424-4.97 15.121z" font-family="Arial Black" fill="#252f86"/><path style="line-height:100%;-inkscape-font-specification:Arial;text-align:start" d="M79.732 141.17c-7.05 5.993-13.835 10.223-20.356 12.69-6.52 2.468-13.518 3.702-20.99 3.702-12.337 0-21.82-3.014-28.446-9.042C3.313 142.493 0 134.79 0 125.415c0-5.499 1.251-10.522 3.754-15.07 2.503-4.546 5.78-8.194 9.834-10.944 4.054-2.75 8.619-4.829 13.694-6.239 3.737-.987 9.377-1.938 16.92-2.855 15.368-1.833 26.683-4.018 33.944-6.556.07-2.608.106-4.265.106-4.97 0-7.755-1.798-13.218-5.393-16.39-4.864-4.301-12.09-6.451-21.678-6.451-8.953 0-15.562 1.568-19.827 4.705-4.265 3.138-7.42 8.69-9.465 16.655L3.28 74.762c1.691-7.966 4.476-14.399 8.353-19.298 3.877-4.9 9.482-8.671 16.814-11.315 7.331-2.644 15.826-3.965 25.484-3.966 9.588 0 17.378 1.129 23.37 3.384 5.993 2.256 10.399 5.094 13.219 8.513 2.82 3.42 4.793 7.737 5.921 12.954.635 3.243.952 9.094.952 17.554v25.379c0 17.694.405 28.886 1.216 33.574.81 4.688 2.415 9.182 4.812 13.483H83.54c-1.975-3.948-3.244-8.566-3.808-13.853zm-1.586-42.509c-6.909 2.82-17.272 5.217-31.089 7.19-7.825 1.129-13.36 2.398-16.602 3.808-3.243 1.41-5.746 3.472-7.508 6.186-1.763 2.714-2.644 5.728-2.644 9.041 0 5.076 1.921 9.306 5.763 12.69 3.842 3.383 9.465 5.075 16.867 5.075 7.332 0 13.853-1.603 19.563-4.811 5.71-3.208 9.905-7.596 12.584-13.165 2.044-4.3 3.066-10.646 3.066-19.035zm62.31-76.772V0h19.034v21.89zm0 133.135V42.72h19.034v112.303zm68.44 0V42.72h17.13v17.025c4.371-7.966 8.407-13.218 12.108-15.756 3.701-2.537 7.772-3.806 12.214-3.807 6.415 0 12.936 2.045 19.563 6.134l-6.556 17.66c-4.653-2.75-9.306-4.125-13.959-4.125-4.16 0-7.896 1.252-11.209 3.754-3.313 2.503-5.675 5.975-7.085 10.416-2.115 6.768-3.172 14.17-3.172 22.207v58.795z" font-family="Arial" fill="#828282"/></g></svg>