<svg xmlns="http://www.w3.org/2000/svg" height="800" width="1200" viewBox="-23.525895 -7.9855 203.89109 47.913"><g fill-rule="evenodd" fill="none"><path fill="#FF8200" d="M38.3565 6.8255v14.3029c0 1.3166-.5715 3.2852-5.8342 3.2852-5.2626 0-5.8355-1.9686-5.8355-3.2852V6.8254h-2.9894v14.466c0 3.5417 2.908 5.085 8.3054 5.085 2.7605 0 4.795-.4662 6.3214-.8999v6.4655h2.943l-.0154-25.1165zM11.2386 0C8.0878 0 3.4134.6619 3.4134 3.9074v2.918H0v1.6739h3.4134v17.4222H6.275V8.4993h4.5045l.0014-1.6738H6.275V4.2673c0-2.4915 2.8813-2.8883 4.9636-2.8883 3.4457 0 5.1602.2622 5.1602 4.069l-.0014 20.4735h2.8602V.4606h-2.8588C14.805.4606 14.0356 0 11.2386 0zm142.4568 8.6523c-1.7298 0-3.134 1.4215-3.134 3.1718 0 1.7532 1.4042 3.1761 3.134 3.1761 1.7468 0 3.1439-1.423 3.1439-3.176 0-1.7504-1.3971-3.1719-3.1439-3.1719z"/><path fill="#006496" d="M130.8588 11.1478c2.2241-.255 4.2165-.3798 5.4718-.384-.6908-2.6886-3.8473-3.7388-9.0552-3.7388-4.4988 0-8.5132 1.5675-8.5132 1.5675v3.7345s2.7816-2.2606 8.5905-2.2606c1.9026 0 2.9528.343 3.506 1.0814zm-69.4115 9.3836c-.1615 2.0692-2.3702 3.1889-4.5157 3.1889-4.6476 0-5.2991-2.0395-5.2991-6.698 0-4.6528.9112-6.688 5.0703-6.688 2.6959 0 4.583 1.1126 4.7445 3.1803.1292 1.6724.1966 2.527.1966 3.5077 0 .9836-.0674 1.9374-.1966 3.5091zm.1966-12.3655c-1.9195-.754-3.3798-1.148-5.7541-1.148-7.2467 0-9.4568 2.758-9.4568 10.0044 0 7.2167 3.2491 10.0072 10.4986 10.0072 4.4174 0 7.6286-1.668 9.9117-1.668V1.1136H61.644zm84.3864-.7044l-5.1994.0015v3.1477h5.1994zm-14.565 13.0232c0 2.7268-2.5274 3.4155-4.2587 3.4155-2.9528 0-4.465-.897-4.465-2.8274 0-3.2597 4.142-4.9363 8.7237-5.2155zm15.6602-8.0118l-1.5094.0028c-21.0801 0-27.9112 3.9513-27.9112 8.4695 0 4.1965 3.575 6.0375 9.3613 6.0375 3.7336 0 7.512-1.6284 9.4891-1.6284V15.18c2.4656-.3146 4.3093-.3657 4.3093-.3657v11.7632h5.1952v-8.855c0-3.1633 1.0657-5.2495 1.0657-5.2495zm-42.6488 11.2474c-2.147 0-4.3542-1.1197-4.5157-3.1889-.1292-1.5717-.1952-2.5255-.1952-3.509 0-.9808.066-1.8354.1952-3.5092.1615-2.0663 2.05-3.1789 4.746-3.1789 4.1576 0 5.0688 2.0352 5.0688 6.688 0 4.6585-.65 6.698-5.2991 6.698zm1.0404-16.7024c-2.373 0-3.8346.394-5.7513 1.148V1.1137h-5.1994v24.2477c2.2817 0 5.49 1.6681 9.9103 1.6681 7.248 0 10.4986-2.7905 10.4986-10.0072 0-7.2464-2.2115-10.0044-9.4582-10.0044zm-20.437 13.6453c0 1.3167-.4254 3.281-4.3247 3.281s-4.319-1.9643-4.319-3.281V7.4785h-5.2038v14.466c.0014 3.5417 3.6058 5.085 9.006 5.085 4.7755 0 7.859-1.4767 9.388-1.6411l.6502-.068V7.4784H85.08z"/></g></svg>