<svg xmlns="http://www.w3.org/2000/svg" height="800" width="1200" xml:space="preserve" y="0" x="0" id="Layer_1" version="1.1" viewBox="-119.715 -81.606 1037.53 489.636"><style id="style1934" type="text/css">.st0{fill:#00b0aa}</style><g id="g1956"><path id="path1936" d="M764.3 147.9v.4c0 29.2-21.5 47.3-56.1 47.3-20.6 0-41.1-6.5-57.6-18.4-3.8-2.7-6.1-7.4-6.1-12.3 0-8.5 6.7-15.1 15.3-15.1 3.5 0 6.5 1 9.4 3 12.8 9.4 25.8 14 39.8 14 14.3 0 22.8-5.6 22.8-15.1v-.4c0-9.5-6.8-13.8-31.5-20.1-28.7-7.3-50.7-15.4-50.7-46.6v-.4c0-27.1 22-45.9 53.5-45.9 18.1 0 34.4 4.6 48.7 13.6 3.5 2.1 7.2 6.5 7.2 13 0 8.5-6.7 15.1-15.3 15.1-3 0-5.5-.7-8.3-2.4-11.9-7-22.6-10.4-32.7-10.4-12.4 0-20.4 5.5-20.4 14v.4c0 10.7 7.2 14 33.7 20.8 28.9 7.3 48.3 18 48.3 45.5M389.8 38.4c-41.1.1-72.1 34.1-72.1 78.9v61.5c0 9.1 7.4 16.4 16.4 16.4 9.1 0 16.4-7.4 16.4-16.4v-61.5c0-27 16.2-46 39.3-46 23.2.1 39.4 19 39.4 46v61.5c0 9.1 7.3 16.4 16.4 16.4 9.1 0 16.4-7.4 16.4-16.4v-61.5c0-44.9-31-78.8-72.2-78.9m-83.8.7c-8.1-4-18-.7-22 7.4l-42.9 86.9-43-86.9c-4-8.1-13.9-11.4-22-7.4s-11.5 13.9-7.4 22l54.1 109.4-23 46.6c-4 8.1-.7 18 7.5 22 2.3 1.1 4.8 1.7 7.2 1.7 6 0 11.9-3.4 14.7-9.2l84.2-170.5c4-8.1.7-17.9-7.4-22M59.1 74.7c-9 0-16.4 7.3-16.4 16.4 0 9.1 7.3 16.4 16.4 16.4 9 0 16.4-7.3 16.4-16.4 0-9.1-7.4-16.4-16.4-16.4M83.8.5c-1.3 0-2.7-.1-4-.2-2.3-.1-4.9-.3-7.7-.3C28.9 0 2.3 26.9.1 72.3 0 73 0 73.8 0 74.5v103.7c0 9.1 7.3 16.4 16.4 16.4 9.1 0 16.4-7.3 16.4-16.4V78.6c0-41 22.5-45.7 39.3-45.7 1.8 0 3.7.1 5.8.2 1.7.1 3.3.2 5 .3 9.1.3 16.6-6.9 16.9-15.9.2-9.2-6.9-16.7-16-17m48.5.4c-9.1 0-16.4 7.3-16.4 16.4v160.9c0 9.1 7.3 16.4 16.4 16.4 9.1 0 16.4-7.3 16.4-16.4V17.3c0-9-7.4-16.4-16.4-16.4m421 37.5c-42.7.1-75 33.3-75.8 77.3v2.3c.8 44.2 33.1 77.3 75.8 77.3 6.5 0 12.3-.5 15.1-1.1 8.9-1.7 14.8-10.3 13.1-19.2-1.7-8.9-10.3-14.7-19.1-13-.7.1-4.1.5-9.1.5-25.2 0-42.9-18.7-43.1-45.6.2-26.8 17.9-45.5 43-45.6 25.4.1 43.1 19 43.1 46v61.5c0 9.1 7.3 16.4 16.4 16.4 9.1 0 16.4-7.3 16.4-16.4v-61.5c.2-44.9-32.4-78.8-75.8-78.9m230.1 31.7c8.2 0 14.7-6.6 14.7-14.6v-.1c0-8-6.4-14.5-14.6-14.5s-14.7 6.7-14.7 14.6v.1c.1 7.9 6.5 14.5 14.6 14.5m0-2.3c-7 0-12.2-5.5-12.2-12.3v-.1c0-6.8 5.3-12.3 12.3-12.3 7 0 12.2 5.5 12.2 12.3v.1c.1 6.8-5.2 12.3-12.3 12.3m-5.9-6.4c0 .9.8 1.7 1.7 1.7.9 0 1.7-.8 1.7-1.7v-3.6h2.8l3.6 4.5c.4.6.7.8 1.4.8.8 0 1.6-.7 1.6-1.7 0-.5-.2-.8-.4-1.2l-2.5-3.1c1.9-.8 3.1-2.3 3.1-4.7v-.1c0-1.4-.5-2.5-1.3-3.4-1.1-1.1-2.7-1.7-4.8-1.7h-5.2c-.9 0-1.7.8-1.7 1.7zm3.4-6.5v-4.6h3.4c1.7 0 2.8.8 2.8 2.3v.1c0 1.3-.9 2.2-2.7 2.2z" class="st0"/><path id="path1938" d="M597.6 263.1c0-2.9-2.3-5.2-5.2-5.2-2.9 0-5.2 2.3-5.2 5.2v46.8h-20c-4.9 0-19.8 0-19.8-22.7v-24.1c0-2.9-2.3-5.2-5.2-5.2-2.9 0-5.2 2.3-5.2 5.2v24.1c0 21.1 11 33.1 30.2 33.1h25.3c2.8 0 5.1-2.3 5.1-5.2v-.9z" class="st0"/><path id="path1940" d="M616.7 298.4v-59.3c0-2.9-2.3-5.2-5.2-5.2-2.9 0-5.2 2.3-5.2 5.2v59.3c0 2.9 2.3 5.3 5.2 5.3 2.9-.1 5.2-2.4 5.2-5.3" class="st0"/><path id="path1942" d="M569.2 243.7c1.4 0 2.7-.5 3.7-1.5s1.5-2.3 1.5-3.7c0-1.4-.5-2.7-1.5-3.7s-2.3-1.5-3.7-1.5c-1.4 0-2.7.5-3.7 1.5s-1.5 2.3-1.5 3.7c0 1.4.6 2.7 1.5 3.7s2.3 1.5 3.7 1.5" class="st0"/><path id="path1944" d="M508.2 257.9c-2.9 0-5.2 2.3-5.2 5.2V293h-18.7c-4.9 0-19.9 0-19.9-22.7v-31.4c0-2.9-2.3-5.2-5.2-5.2-2.9 0-5.2 2.3-5.2 5.2v31.4c0 21.1 11 33.1 30.3 33.1h23.8c2.9 0 5.2-2.3 5.2-5.2V263c.1-2.8-2.2-5.1-5.1-5.1" class="st0"/><path id="path1946" d="M507.9 243.7c1.4 0 2.7-.5 3.7-1.5s1.5-2.3 1.5-3.7c0-1.4-.6-2.7-1.5-3.7-1-1-2.3-1.5-3.7-1.5-1.4 0-2.7.5-3.7 1.5s-1.5 2.3-1.5 3.7c0 1.4.6 2.7 1.5 3.7 1 1 2.3 1.5 3.7 1.5" class="st0"/><path id="path1948" d="M438.1 257.9c-2.9 0-5.2 2.3-5.2 5.2v17.6c0 .5-.1 12.4-9.4 12.4h-15.8l.6-1.4c1.5-3.4 2.3-7.4 2.3-11v-17.6c0-2.9-2.3-5.2-5.2-5.2-2.9 0-5.2 2.3-5.2 5.2v17.6c0 .5-.1 12.4-9.4 12.4h-12.7V263c0-2.9-2.3-5.2-5.2-5.2-2.9 0-5.2 2.3-5.2 5.2v46.8h-19.6c-4.9 0-19.9 0-19.9-22.7V263c0-2.9-2.3-5.2-5.2-5.2-2.9 0-5.2 2.3-5.2 5.2v24.1c0 21.1 11 33.1 30.3 33.1h24.7c2.9 0 5.2-2.3 5.2-5.2v-11.5h46.8c13.5-.9 18.4-14.1 18.4-22.8v-17.6c.1-2.9-2.3-5.2-5.1-5.2" class="st0"/><path id="path1950" d="M664.1 312.3c-1.4 0-2.7.6-3.7 1.5-1 1-1.6 2.3-1.6 3.7 0 1.3.6 2.7 1.6 3.7s2.3 1.5 3.7 1.5c1.3 0 2.7-.6 3.7-1.5 1-1 1.5-2.3 1.5-3.7 0-1.4-.5-2.7-1.5-3.7-1-.9-2.3-1.5-3.7-1.5" class="st0"/><path id="path1952" d="M648.9 312.3c-1.3 0-2.7.6-3.7 1.5-1 1-1.5 2.3-1.5 3.7 0 1.3.6 2.7 1.5 3.7 1 .9 2.3 1.5 3.7 1.5 1.3 0 2.7-.6 3.7-1.5 1-1 1.5-2.3 1.5-3.7 0-1.4-.5-2.7-1.5-3.7-1-.9-2.3-1.5-3.7-1.5" class="st0"/><path id="path1954" d="M731.8 249c-11.9-.4-22.9 3.2-30.7 10.1l-.4.4c-.7.6-1.5 1.3-2.2 2l-1.7 1.6v-23.9c0-2.9-2.3-5.2-5.2-5.2-2.9 0-5.2 2.3-5.2 5.2v42.7c0 1.4.6 2.7 1.6 3.7s2.3 1.5 3.7 1.5c1.4 0 2.7-.6 3.7-1.5.5-.6 1-1.3 1.2-2.2l.3-1.1c.6-1.9 1-2.7 1.7-4 1-1.9 2.4-3.9 4.3-6.2 1.2-1.6 3-3.1 4.7-4.6l.4-.4c5.8-5.1 14.2-7.8 23.4-7.5 15.2.6 18.2 6.7 18.2 16.5v17.2h-86.1l.6-1.4c1.5-3.5 2.3-7.4 2.3-11v-18c0-2.9-2.3-5.2-5.2-5.2-2.9 0-5.2 2.3-5.2 5.2v17.8c0 .5-.1 12.4-9.4 12.4H636v-30.2c0-2.9-2.3-5.2-5.2-5.2-2.8 0-5.2 2.3-5.2 5.2v36c0 9.7-8.1 16.1-11.8 17.5-2.7 1-4 4-3 6.7 1 2.6 4.1 4 6.7 3 7-2.6 15.6-10.6 17.9-21.7l.2-.8h119.3c2.9 0 5.2-2.4 5.2-5.3v-22.4c.1-17.2-9.4-26.2-28.3-26.9" class="st0"/></g></svg>