<svg xmlns="http://www.w3.org/2000/svg" height="800" width="1200" viewBox="-7.49367 -4.5186 64.94514 27.1116"><defs><radialGradient fx="0" fy="0" cx="0" cy="0" r="1" gradientUnits="userSpaceOnUse" gradientTransform="translate(30.2243 -25.3261) scale(10.17506)" spreadMethod="pad" id="a"><stop offset="0" stop-color="#00aeef"/><stop offset=".4758" stop-color="#00aeef"/><stop offset=".7988" stop-color="#0b4379"/><stop offset="1" stop-color="#1e285a"/></radialGradient></defs><path d="M12.8187-30.517c2.3686 1.2562 8.5454 5.8341 15.1148 7.695.3157.0893.629.1715.9377.2466 3.211.7814 5.9803.8037 7.887.6477-9.5835-1.6181-12.6157-4.344-13.0506-4.9336a1.4928 1.4928 0 01-.072-.103c-.0282-.0123 1.5536-1.5458 4.6034-1.5063 3.81.0487 6.391 1.2104 6.391 1.2104-1.3325-.8005-2.6865-1.3223-3.8344-1.6602a15.4133 15.4133 0 00-1.8394-.4403c-.7264-.1337-1.173-.1661-1.173-.1661-1.9703-.2075-3.4396.2233-4.6648.6537-1.1461.4018-2.6271 1.1595-4.59.3167-.8431-.3615-1.4326-.4815-2.4024-.3732-1.5293-.6343-2.6829-1.3846-3.2575-1.6323z" fill="url(#a)" transform="translate(-12.8187 35.5848)"/><path d="M49.9426 3.1143c.0151-.0695.0434-.2427-.0614-.2639-.1231-.0243-.2692.3154-.309.3909-.3253.6188-.2678.8424-.2103 1.8122.0572.9698-.0765 1.525-.115 1.7036-.0385.1788-.1404.4596-.019.4723.121.0127.1912-.1023.4145-.6445.2236-.5426.2748-1.3465.2808-1.8376.006-.452-.0653-.902-.0237-1.3508a2.359 2.359 0 01.043-.2822M43.9601 4.649c-.0829-.0389-.2173.2455-.4152.5362-.1982.2903-.4092.5425-.8054.51-.3961-.032-.2494-.51-.211-.6843.0308-.1404.0622-.2801.0833-.422.0113-.0775.0265-.1619.018-.2405-.0049-.0466-.0346-.0713-.0836-.0653-.104.0127-.2092.1753-.2565.2582-.0628.1101-.1054.2304-.147.3497-.0572.1647-.0943.3344-.1444.5009-.0448.1482-.0638.2194-.0638.2194-1.5402.9818-4.941 1.4274-6.4364 1.4725-1.4955.0455-3.2071-.284-4.0827-.6586-.8756-.3747-.9843-.7105-1.0227-.6848-.0381.0262-.2876.4523-.5049.7042-.217.2519-.7729.6974-1.1052.2519-.3323-.4456-.5496-.5169-.6714-.5363-.7217-.115-1.6548 1.0143-1.834 1.5696-.1341.3294-.313.8784-.2428.8784.0702 0 .0766-.0388.4026-.5553.411-.6512.914-.872 1.2717-.7945.358.0777.3133.6008.8054.6199.7797.0388 1.361-.9042 1.444-.9945.0832-.0907.0578-.0907.1791-.0194.1214.0709 2.2176 1.1112 4.5428 1.1818 3.4064.1034 7.2474-1.8828 7.2478-1.886 0 0 .0127.5881.5179.5363.7733-.0452 1.3165-1.2594 1.4633-1.5695.147-.3101.098-.4562.0511-.478" fill="#20285c"/><path d="M38.7497 3.8203c.3482.1107.6008.3972.6396.4893.0384.092.0095.1548.0628.1647.0395.0071.122-.0864.1471-.1083.1764-.1552.3471-.3224.5006-.501a.8544.8544 0 00.0533-.0673c.02.0088.0423.0155.0645.0226.3479.1107.6005.3972.6393.4893.0388.092.0095.1548.0628.1647.0395.0071.1224-.0864.147-.1083.1768-.1552.3475-.3224.501-.501.0829-.0966.1348-.1774.079-.3054-.0476-.1094-.1397-.2015-.2279-.277a2.849 2.849 0 00-.4014-.2875c-.0724-.043-.1874-.1414-.2784-.115-.0748.0219-.1517.1323-.2021.187a7.7913 7.7913 0 00-.3754.4388l-.006.0078c-.0508-.0896-.129-.1665-.2046-.231a2.818 2.818 0 00-.4244-.3013c-.0804-.0462-.201-.1415-.2952-.0804-.0805.0525-.1524.1545-.216.2254-.1104.1238-.2367.2501-.3287.3888-.1598.242-.0434.2712.0631.3051m-12.038 0c.3482.1107.6008.3972.6396.4893.0385.092.0095.1548.0628.1647.0395.0071.122-.0864.1471-.1083.1764-.1552.3472-.3224.5006-.501a.852.852 0 00.0533-.0673c.02.0088.0423.0155.0645.0226.3479.1107.6005.3972.6393.4893.0388.092.0095.1548.0628.1647.0395.0071.1224-.0864.147-.1083.1768-.1552.3476-.3224.501-.501.083-.0966.1348-.1774.079-.3054-.0476-.1094-.1397-.2015-.2279-.277a2.849 2.849 0 00-.4014-.2875c-.0723-.043-.1873-.1414-.2784-.115-.0748.0219-.1517.1323-.2021.187a7.7913 7.7913 0 00-.3754.4388l-.006.0078c-.0508-.0896-.129-.1665-.2046-.231a2.818 2.818 0 00-.4244-.3013c-.0804-.0462-.201-.1415-.2952-.0804-.0805.0525-.1524.1545-.216.2254-.1104.1238-.2366.2501-.3287.3888-.1598.242-.0434.2712.0631.3051m15.7735 4.3129a2.857 2.857 0 00-.4014-.2876c-.0727-.0427-.1873-.141-.2784-.1146-.0751.0215-.152.132-.2021.187a7.8051 7.8051 0 00-.3754.4385.1232.1232 0 01-.006.0078c-.0508-.0893-.129-.1666-.2046-.2311a2.821 2.821 0 00-.4247-.3013c-.0801-.0458-.2007-.1414-.295-.08-.0804.0521-.1523.1541-.2158.225-.1105.1238-.2371.2501-.3285.3888-.1601.2423-.0437.2713.0628.3051.3482.1108.6008.3976.6392.4893.0388.0921.01.1552.0632.1648.0395.007.122-.0865.1471-.1083.1764-.1553.3471-.3225.5006-.501a.7228.7228 0 00.053-.0674.615.615 0 00.0648.0226c.3482.1108.6005.3976.6393.4893.0388.0921.0099.1553.0631.1648.0392.007.122-.0865.1471-.1083.1764-.1552.3472-.3225.5003-.501.0836-.0963.135-.1774.079-.3055-.0476-.1093-.1397-.2014-.2276-.277m-10.9112.0001a2.857 2.857 0 00-.4015-.2876c-.0726-.0427-.1873-.141-.2783-.1146-.0751.0215-.152.132-.2021.187a7.8051 7.8051 0 00-.3754.4385c-.0021.0028-.0039.0053-.006.0078-.0508-.0893-.1291-.1666-.2046-.2311a2.821 2.821 0 00-.4248-.3013c-.08-.0458-.2007-.1414-.2949-.08-.0804.0521-.1524.1541-.2159.225-.1104.1238-.237.2501-.3284.3888-.1602.2423-.0438.2713.0628.3051.3482.1108.6008.3976.6392.4893.0388.0921.01.1552.0632.1648.0395.007.122-.0865.147-.1083.1765-.1553.3472-.3225.5007-.501a.7228.7228 0 00.0529-.0674.615.615 0 00.0649.0226c.3482.1108.6004.3976.6392.4893.0388.0921.01.1553.0632.1648.0391.007.122-.0865.147-.1083.1765-.1552.3472-.3225.5003-.501.0836-.0963.1351-.1774.079-.3055-.0476-.1093-.1397-.2014-.2275-.277m17.5482-6.1937c.1259-.3002.0391-.3535 0-.3535-.0872 0-.3295.4357-.591 1.0026-.2617.5666-.2568.9931-.2518 1.2838.0049.2903-.0194 1.2887-.0388 1.3998-.109.6259-.4555 1.0513-.9448.8915-.3633-.1891-.3563-2.589-.2734-2.68.3814-.4206 1.6567-2.1259 1.6986-2.1718.3288-.4141.289-.6695.289-1.1906 0-.1968-.1059-.1164-.1958-.0212-.0152.0163-1.5914 1.9001-1.9904 2.6184-.344.619-.0956 2.787-.2205 3.0529-.2282.4854-.8625.7581-.8625.7581-.0194-.1404-.0988-.4385-.399-.7874-.3002-.3485-.7747-.1016-.9592.1891-.1856.2921-.5204.8343-.4431 1.2026.0776.368.4678.506.7052.506.2275 0 .4724-.0985.5345-.047.1012.0836-.2438.2685-.4167.3895-.4395.3072-1.0054.6113-1.1716.7083-.1386.0808-.4222.1955-.3834.302.026.072.122.036.177.0268.1401-.023.5395-.1111.772-.1545.9345-.1753 1.1154-.6166 1.3373-1.2044.1863-.4935.972-1.2693 1.0852-1.2693.1132 0 .0275.8284.6152.8284 1.6863 0 1.6471-3.3229 1.6323-4.0013-.0144-.678.1697-.9786.2956-1.2788M29.297 14.9734l-1.3472-1.5946 1.7738-1.8669h-.6234l-1.747 1.8313v-1.8313h-1.3349v.2378l.0664.0025c.4367.018.5193.0956.5193.491v3.6333h.7493v-2.0958l1.7825 2.0958h1.196v-.2356l-.0642-.0046c-.3348-.0233-.5617-.1782-.9705-.663m4.3949-.8463c0 .9603-.3298 1.4073-1.0382 1.4073-.6826 0-.9874-.4106-.9874-1.3307v-2.6913h-1.3346v.2392l.0681.001c.4255.0057.5175.0928.5175.4908v1.9346c0 1.1945.5306 1.7748 1.6218 1.7748 1.0893 0 1.5966-.5803 1.5966-1.8256v-2.6148h-.4438zm6.1537-2.6149l-.8696 2.9715-1.0146-2.9715h-1.2136v.2403h.0692c.2914 0 .5246.2014.6276.5397l-.762 2.1714-.8834-2.9514h-1.1387v.2403h.0691c.249 0 .4325.189.5447.5612l1.0647 3.6135h.3552l1.0076-2.8882 1.0071 2.8882h.3302l1.2813-4.415zm4.0448 3.5314l-1.4048-3.5313h-1.1218v.2388l.068.0014c.422.0078.422.128.422.1789 0 .0352-.025.1337-.0967.3055l-1.457 3.6396h.4671l.5539-1.4002h1.5543l.5602 1.4002h1.1088v-.2389l-.0677-.0014c-.2762-.0056-.4025-.133-.5863-.5926m-1.172-.9603h-1.2343l.6173-1.5512zm1.826-2.3336l.0663.0025c.4414.018.5193.0914.5193.491v3.6333h.749v-4.3642h-1.3346zm5.4132-.2375h-3.5754v1.1056h.2021l.0113-.0554c.0727-.3633.1471-.5048.3055-.581.1252-.06.2695-.0762.6703-.0762h.2363v3.9712h.7493v-3.9712h.2364c.7553 0 .8558.0677.9761.6572l.0113.0554h.1768zM26.886 18.053l-.1577-.3945h-.4646l-.1559.3944h-.0892l.3997-.9984c.018-.043.0285-.0769.0285-.093 0-.047-.043-.0685-.1383-.0703v-.0286h.2837l.3909.9825c.0536.1344.0945.1771.1827.1792v.0286zm-.389-.9752l-.2026.509h.405zm3.6393.9752v-1.004c0-.1235-.0307-.152-.1647-.1577v-.0286h.3369v1.1903zm4.0933-.1722c.061.0914.1361.1433.2007.1433v.0289h-.2798l-.3707-.5521H33.67v.552h-.1718v-1.004c0-.1199-.036-.154-.1651-.1576v-.0286h.4875c.3013 0 .4445.1037.4445.3228 0 .1164-.0483.206-.1397.2561-.043.0237-.0808.0342-.1577.0466zm-.5595-.4515c.14 0 .1813-.0018.224-.011.1312-.025.1919-.1002.1919-.2346 0-.176-.0967-.2494-.328-.2494-.0805 0-.088.0071-.088.1002zm4.647.638h-.0646l-.2977-.8534-.2974.8534h-.0716l-.296-1.004c-.0339-.1129-.0914-.1718-.1721-.1718v-.0286h.2868l.2617.8746.2367-.6742c-.0303-.1073-.104-.1718-.1972-.1718v-.0286h.3087l.301.882.2582-.882h.0931zm4.0086-.0143l-.1576-.3945h-.4647l-.1559.3944h-.0892l.3997-.9984c.018-.043.0285-.0769.0285-.093 0-.047-.043-.0685-.1382-.0703v-.0286h.2836l.3909.9825c.0536.1344.0945.1771.1827.1792v.0286zm-.389-.9752l-.2026.509h.405zm3.9442.423v.3585c0 .129.0307.1598.1647.165v.0286h-.3369v-.545l-.2582-.4015c-.1076-.1686-.1577-.2116-.2653-.2151v-.0286h.3013l.3513.5447.3443-.5447h.1006zm3.7827-.5952c-.2042.0127-.3083.0752-.3083.1884 0 .0932.0699.163.2635.26.249.127.3387.2293.3387.3853 0 .1972-.1683.335-.405.335-.0646 0-.12-.0087-.2741-.0447 0 0-.0378-.0088-.0737-.0127l-.0286-.2794h.0286c.054.1665.1721.2582.3333.2582.1436 0 .2477-.09.2477-.2134 0-.1058-.0702-.1792-.267-.2794-.1348-.0684-.2227-.1309-.26-.1901a.295.295 0 01-.054-.1704c0-.1041.0465-.188.1308-.2368.079-.0448.1616-.061.3281-.0645z" fill="#20285c"/></svg>